<svg width="1440" height="1024" viewBox="0 0 1440 1024" fill="none" xmlns="http://www.w3.org/2000/svg">
    <rect width="1440" height="1024" fill="#E8E8E8"/>
    <path d="M437.477 493.875H441.977V528H437.477V501.703L420.672 528H416.148V493.875H420.672V520.172L437.477 493.875ZM463.445 509.578C463.445 508.391 462.992 507.453 462.086 506.766C461.18 506.062 459.938 505.711 458.359 505.711C456.828 505.711 455.547 506.109 454.516 506.906C453.5 507.703 452.992 508.641 452.992 509.719H448.68C448.68 507.516 449.602 505.711 451.445 504.305C453.289 502.898 455.594 502.195 458.359 502.195C461.328 502.195 463.641 502.836 465.297 504.117C466.953 505.383 467.781 507.195 467.781 509.555C467.781 510.695 467.438 511.742 466.75 512.695C466.062 513.648 465.086 514.406 463.82 514.969C466.773 515.969 468.25 517.938 468.25 520.875C468.25 523.203 467.352 525.047 465.555 526.406C463.758 527.766 461.359 528.445 458.359 528.445C455.438 528.445 453.023 527.734 451.117 526.312C449.227 524.875 448.281 522.938 448.281 520.5H452.594C452.594 521.734 453.141 522.797 454.234 523.688C455.344 524.562 456.719 525 458.359 525C460.016 525 461.352 524.617 462.367 523.852C463.383 523.086 463.891 522.094 463.891 520.875C463.891 519.453 463.461 518.438 462.602 517.828C461.758 517.203 460.438 516.891 458.641 516.891H454.305V513.234H459.016C461.969 513.156 463.445 511.938 463.445 509.578ZM472.727 515.086C472.727 512.602 473.211 510.367 474.18 508.383C475.164 506.398 476.523 504.867 478.258 503.789C480.008 502.711 482 502.172 484.234 502.172C487.688 502.172 490.477 503.367 492.602 505.758C494.742 508.148 495.812 511.328 495.812 515.297V515.602C495.812 518.07 495.336 520.289 494.383 522.258C493.445 524.211 492.094 525.734 490.328 526.828C488.578 527.922 486.562 528.469 484.281 528.469C480.844 528.469 478.055 527.273 475.914 524.883C473.789 522.492 472.727 519.328 472.727 515.391V515.086ZM477.086 515.602C477.086 518.414 477.734 520.672 479.031 522.375C480.344 524.078 482.094 524.93 484.281 524.93C486.484 524.93 488.234 524.07 489.531 522.352C490.828 520.617 491.477 518.195 491.477 515.086C491.477 512.305 490.812 510.055 489.484 508.336C488.172 506.602 486.422 505.734 484.234 505.734C482.094 505.734 480.367 506.586 479.055 508.289C477.742 509.992 477.086 512.43 477.086 515.602ZM512.383 504.094C515.57 504.094 518.117 505.164 520.023 507.305C521.945 509.43 522.906 512.234 522.906 515.719V516.117C522.906 518.508 522.445 520.648 521.523 522.539C520.602 524.414 519.273 525.875 517.539 526.922C515.82 527.953 513.836 528.469 511.586 528.469C508.18 528.469 505.438 527.336 503.359 525.07C501.281 522.789 500.242 519.734 500.242 515.906V513.797C500.242 508.469 501.227 504.234 503.195 501.094C505.18 497.953 508.102 496.039 511.961 495.352C514.148 494.961 515.625 494.484 516.391 493.922C517.156 493.359 517.539 492.586 517.539 491.602H521.102C521.102 493.555 520.656 495.078 519.766 496.172C518.891 497.266 517.484 498.039 515.547 498.492L512.312 499.219C509.734 499.828 507.797 500.859 506.5 502.312C505.219 503.75 504.383 505.672 503.992 508.078C506.289 505.422 509.086 504.094 512.383 504.094ZM511.539 507.656C509.414 507.656 507.727 508.375 506.477 509.812C505.227 511.234 504.602 513.211 504.602 515.742V516.117C504.602 518.836 505.227 520.992 506.477 522.586C507.742 524.164 509.445 524.953 511.586 524.953C513.742 524.953 515.445 524.156 516.695 522.562C517.945 520.969 518.57 518.641 518.57 515.578C518.57 513.188 517.938 511.273 516.672 509.836C515.422 508.383 513.711 507.656 511.539 507.656ZM548.781 515.602C548.781 519.461 547.898 522.57 546.133 524.93C544.367 527.289 541.977 528.469 538.961 528.469C535.883 528.469 533.461 527.492 531.695 525.539V537.75H527.359V502.641H531.32L531.531 505.453C533.297 503.266 535.75 502.172 538.891 502.172C541.938 502.172 544.344 503.32 546.109 505.617C547.891 507.914 548.781 511.109 548.781 515.203V515.602ZM544.445 515.109C544.445 512.25 543.836 509.992 542.617 508.336C541.398 506.68 539.727 505.852 537.602 505.852C534.977 505.852 533.008 507.016 531.695 509.344V521.461C532.992 523.773 534.977 524.93 537.648 524.93C539.727 524.93 541.375 524.109 542.594 522.469C543.828 520.812 544.445 518.359 544.445 515.109ZM569.969 528C569.719 527.5 569.516 526.609 569.359 525.328C567.344 527.422 564.938 528.469 562.141 528.469C559.641 528.469 557.586 527.766 555.977 526.359C554.383 524.938 553.586 523.141 553.586 520.969C553.586 518.328 554.586 516.281 556.586 514.828C558.602 513.359 561.43 512.625 565.07 512.625H569.289V510.633C569.289 509.117 568.836 507.914 567.93 507.023C567.023 506.117 565.688 505.664 563.922 505.664C562.375 505.664 561.078 506.055 560.031 506.836C558.984 507.617 558.461 508.562 558.461 509.672H554.102C554.102 508.406 554.547 507.188 555.438 506.016C556.344 504.828 557.562 503.891 559.094 503.203C560.641 502.516 562.336 502.172 564.18 502.172C567.102 502.172 569.391 502.906 571.047 504.375C572.703 505.828 573.562 507.836 573.625 510.398V522.07C573.625 524.398 573.922 526.25 574.516 527.625V528H569.969ZM562.773 524.695C564.133 524.695 565.422 524.344 566.641 523.641C567.859 522.938 568.742 522.023 569.289 520.898V515.695H565.891C560.578 515.695 557.922 517.25 557.922 520.359C557.922 521.719 558.375 522.781 559.281 523.547C560.188 524.312 561.352 524.695 562.773 524.695ZM600.648 516.984H597.602V528H593.266V516.984H590.219L583.117 528H577.633L586.703 514.875L578.5 502.641H583.75L590.289 513.141H593.266V502.641H597.602V513.141H600.555L607.141 502.641H612.391L604.164 514.898L613.234 528H607.75L600.648 516.984ZM627.227 528.469C623.789 528.469 620.992 527.344 618.836 525.094C616.68 522.828 615.602 519.805 615.602 516.023V515.227C615.602 512.711 616.078 510.469 617.031 508.5C618 506.516 619.344 504.969 621.062 503.859C622.797 502.734 624.672 502.172 626.688 502.172C629.984 502.172 632.547 503.258 634.375 505.43C636.203 507.602 637.117 510.711 637.117 514.758V516.562H619.938C620 519.062 620.727 521.086 622.117 522.633C623.523 524.164 625.305 524.93 627.461 524.93C628.992 524.93 630.289 524.617 631.352 523.992C632.414 523.367 633.344 522.539 634.141 521.508L636.789 523.57C634.664 526.836 631.477 528.469 627.227 528.469ZM626.688 505.734C624.938 505.734 623.469 506.375 622.281 507.656C621.094 508.922 620.359 510.703 620.078 513H632.781V512.672C632.656 510.469 632.062 508.766 631 507.562C629.938 506.344 628.5 505.734 626.688 505.734ZM662.875 528H658.539V517.172H646.891V528H642.531V502.641H646.891V513.633H658.539V502.641H662.875V528ZM686.266 502.641H690.602V528H686.266V509.508L674.57 528H670.234V502.641H674.57V521.156L686.266 502.641ZM708.086 528.469C704.648 528.469 701.852 527.344 699.695 525.094C697.539 522.828 696.461 519.805 696.461 516.023V515.227C696.461 512.711 696.938 510.469 697.891 508.5C698.859 506.516 700.203 504.969 701.922 503.859C703.656 502.734 705.531 502.172 707.547 502.172C710.844 502.172 713.406 503.258 715.234 505.43C717.062 507.602 717.977 510.711 717.977 514.758V516.562H700.797C700.859 519.062 701.586 521.086 702.977 522.633C704.383 524.164 706.164 524.93 708.32 524.93C709.852 524.93 711.148 524.617 712.211 523.992C713.273 523.367 714.203 522.539 715 521.508L717.648 523.57C715.523 526.836 712.336 528.469 708.086 528.469ZM707.547 505.734C705.797 505.734 704.328 506.375 703.141 507.656C701.953 508.922 701.219 510.703 700.938 513H713.641V512.672C713.516 510.469 712.922 508.766 711.859 507.562C710.797 506.344 709.359 505.734 707.547 505.734ZM755.641 528H751.305V517.172H739.656V528H735.297V502.641H739.656V513.633H751.305V502.641H755.641V528ZM773.148 528.469C769.711 528.469 766.914 527.344 764.758 525.094C762.602 522.828 761.523 519.805 761.523 516.023V515.227C761.523 512.711 762 510.469 762.953 508.5C763.922 506.516 765.266 504.969 766.984 503.859C768.719 502.734 770.594 502.172 772.609 502.172C775.906 502.172 778.469 503.258 780.297 505.43C782.125 507.602 783.039 510.711 783.039 514.758V516.562H765.859C765.922 519.062 766.648 521.086 768.039 522.633C769.445 524.164 771.227 524.93 773.383 524.93C774.914 524.93 776.211 524.617 777.273 523.992C778.336 523.367 779.266 522.539 780.062 521.508L782.711 523.57C780.586 526.836 777.398 528.469 773.148 528.469ZM772.609 505.734C770.859 505.734 769.391 506.375 768.203 507.656C767.016 508.922 766.281 510.703 766 513H778.703V512.672C778.578 510.469 777.984 508.766 776.922 507.562C775.859 506.344 774.422 505.734 772.609 505.734ZM820.703 528H816.367V517.172H804.719V528H800.359V502.641H804.719V513.633H816.367V502.641H820.703V528ZM843.344 528C843.094 527.5 842.891 526.609 842.734 525.328C840.719 527.422 838.312 528.469 835.516 528.469C833.016 528.469 830.961 527.766 829.352 526.359C827.758 524.938 826.961 523.141 826.961 520.969C826.961 518.328 827.961 516.281 829.961 514.828C831.977 513.359 834.805 512.625 838.445 512.625H842.664V510.633C842.664 509.117 842.211 507.914 841.305 507.023C840.398 506.117 839.062 505.664 837.297 505.664C835.75 505.664 834.453 506.055 833.406 506.836C832.359 507.617 831.836 508.562 831.836 509.672H827.477C827.477 508.406 827.922 507.188 828.812 506.016C829.719 504.828 830.938 503.891 832.469 503.203C834.016 502.516 835.711 502.172 837.555 502.172C840.477 502.172 842.766 502.906 844.422 504.375C846.078 505.828 846.938 507.836 847 510.398V522.07C847 524.398 847.297 526.25 847.891 527.625V528H843.344ZM836.148 524.695C837.508 524.695 838.797 524.344 840.016 523.641C841.234 522.938 842.117 522.023 842.664 520.898V515.695H839.266C833.953 515.695 831.297 517.25 831.297 520.359C831.297 521.719 831.75 522.781 832.656 523.547C833.562 524.312 834.727 524.695 836.148 524.695ZM870.203 502.641H874.539V528H870.203V509.508L858.508 528H854.172V502.641H858.508V521.156L870.203 502.641ZM871.375 493.406C871.375 495.297 870.727 496.82 869.43 497.977C868.148 499.117 866.461 499.688 864.367 499.688C862.273 499.688 860.578 499.109 859.281 497.953C857.984 496.797 857.336 495.281 857.336 493.406H860.875C860.875 494.5 861.172 495.359 861.766 495.984C862.359 496.594 863.227 496.898 864.367 496.898C865.461 496.898 866.312 496.594 866.922 495.984C867.547 495.375 867.859 494.516 867.859 493.406H871.375ZM881.289 524.461L882.789 522.609C884.477 520.422 885.438 517.141 885.672 512.766L886.07 502.641H902.406V524.461H905.664V535.453H901.328V528H883.633V535.453H879.297L879.32 524.461H881.289ZM886.422 524.461H898.07V506.648H890.266L890.008 512.695C889.742 517.742 888.547 521.664 886.422 524.461ZM920.992 528.469C917.555 528.469 914.758 527.344 912.602 525.094C910.445 522.828 909.367 519.805 909.367 516.023V515.227C909.367 512.711 909.844 510.469 910.797 508.5C911.766 506.516 913.109 504.969 914.828 503.859C916.562 502.734 918.438 502.172 920.453 502.172C923.75 502.172 926.312 503.258 928.141 505.43C929.969 507.602 930.883 510.711 930.883 514.758V516.562H913.703C913.766 519.062 914.492 521.086 915.883 522.633C917.289 524.164 919.07 524.93 921.227 524.93C922.758 524.93 924.055 524.617 925.117 523.992C926.18 523.367 927.109 522.539 927.906 521.508L930.555 523.57C928.43 526.836 925.242 528.469 920.992 528.469ZM920.453 505.734C918.703 505.734 917.234 506.375 916.047 507.656C914.859 508.922 914.125 510.703 913.844 513H926.547V512.672C926.422 510.469 925.828 508.766 924.766 507.562C923.703 506.344 922.266 505.734 920.453 505.734ZM956.641 528H952.305V517.172H940.656V528H936.297V502.641H940.656V513.633H952.305V502.641H956.641V528ZM962.477 515.086C962.477 512.602 962.961 510.367 963.93 508.383C964.914 506.398 966.273 504.867 968.008 503.789C969.758 502.711 971.75 502.172 973.984 502.172C977.438 502.172 980.227 503.367 982.352 505.758C984.492 508.148 985.562 511.328 985.562 515.297V515.602C985.562 518.07 985.086 520.289 984.133 522.258C983.195 524.211 981.844 525.734 980.078 526.828C978.328 527.922 976.312 528.469 974.031 528.469C970.594 528.469 967.805 527.273 965.664 524.883C963.539 522.492 962.477 519.328 962.477 515.391V515.086ZM966.836 515.602C966.836 518.414 967.484 520.672 968.781 522.375C970.094 524.078 971.844 524.93 974.031 524.93C976.234 524.93 977.984 524.07 979.281 522.352C980.578 520.617 981.227 518.195 981.227 515.086C981.227 512.305 980.562 510.055 979.234 508.336C977.922 506.602 976.172 505.734 973.984 505.734C971.844 505.734 970.117 506.586 968.805 508.289C967.492 509.992 966.836 512.43 966.836 515.602ZM1002.77 525.727C1002.77 524.977 1002.98 524.352 1003.42 523.852C1003.88 523.352 1004.55 523.102 1005.44 523.102C1006.33 523.102 1007 523.352 1007.45 523.852C1007.92 524.352 1008.16 524.977 1008.16 525.727C1008.16 526.445 1007.92 527.047 1007.45 527.531C1007 528.016 1006.33 528.258 1005.44 528.258C1004.55 528.258 1003.88 528.016 1003.42 527.531C1002.98 527.047 1002.77 526.445 1002.77 525.727ZM1002.79 505.031C1002.79 504.281 1003.01 503.656 1003.45 503.156C1003.9 502.656 1004.57 502.406 1005.46 502.406C1006.35 502.406 1007.02 502.656 1007.48 503.156C1007.95 503.656 1008.18 504.281 1008.18 505.031C1008.18 505.75 1007.95 506.352 1007.48 506.836C1007.02 507.32 1006.35 507.562 1005.46 507.562C1004.57 507.562 1003.9 507.32 1003.45 506.836C1003.01 506.352 1002.79 505.75 1002.79 505.031ZM1014.37 514.148C1014.37 510.617 1014.84 507.227 1015.77 503.977C1016.73 500.727 1018.14 497.773 1020.02 495.117C1021.89 492.461 1023.84 490.586 1025.85 489.492L1026.74 492.352C1024.46 494.102 1022.59 496.773 1021.12 500.367C1019.66 503.961 1018.87 507.984 1018.73 512.438L1018.7 514.43C1018.7 520.461 1019.8 525.695 1022.01 530.133C1023.34 532.789 1024.91 534.867 1026.74 536.367L1025.85 539.016C1023.77 537.859 1021.79 535.922 1019.9 533.203C1016.21 527.891 1014.37 521.539 1014.37 514.148Z"
          fill="black"/>
</svg>
